<svg width="981" height="541" viewBox="0 0 981 541" fill="none" xmlns="http://www.w3.org/2000/svg">
<path d="M962.11 451.517L962.096 451.78C961.703 459.447 960.671 466.692 959.16 473.504C951.172 509.545 930.335 532.572 925.139 538.15L925.128 538.161C924.425 538.919 923.992 539.351 923.938 539.463C901.359 539.463 755.391 539.488 589.052 539.441C544.215 539.431 497.899 539.413 452.118 539.384C431.327 539.373 410.649 539.362 390.27 539.348C375.43 539.337 360.749 539.322 346.302 539.312C291.46 539.265 239.955 539.203 195.782 539.124C172.135 539.081 150.591 539.034 131.756 538.976C81.6032 538.836 50.6971 538.655 50.6037 538.421L50.5492 538.259C50.5492 538.259 50.5027 538.212 50.4991 538.161L50.4951 538.15C50.4951 538.096 50.4374 538.039 50.4374 538.039C50.3043 537.728 21.4108 497.771 12.8207 442.952C10.83 430.24 9.92808 416.731 10.7323 402.731V402.511C13.7399 350.88 39.8858 292.689 119.79 243.301C196.142 196.044 114.976 164.872 175.687 112.256C215.775 77.571 257.977 84.8665 301.347 92.162C333.475 97.5642 366.245 102.97 399.268 91.3073C412.943 86.4424 426.726 78.6745 440.509 66.7522C448.273 60.0265 456.752 54.1194 465.829 49.085C467.253 48.2664 468.62 47.4983 470.041 46.7878C475.512 43.9461 481.145 41.3748 486.998 39.0776C490.878 37.5449 494.87 36.124 498.92 34.8113C505.372 32.68 511.989 30.8733 518.718 29.3983C528.289 27.2093 538.189 25.6225 548.25 24.5298C552.628 24.0358 557.06 23.6535 561.543 23.3794C643.676 18.2008 735.582 45.5689 787.855 86.6985C790.754 88.9776 793.528 91.3001 796.175 93.6622C797.271 94.6431 798.786 96.0676 800.574 97.9104C812.774 110.482 837.618 142.477 827.362 185.741C826.485 189.431 825.357 193.206 823.943 197.054C821.916 202.565 819.309 208.23 816.027 214.04C810.942 223.063 811.707 231.923 816.301 240.896L816.352 240.95H816.355C816.608 241.433 816.871 241.916 817.145 242.4C818.104 244.091 819.201 245.786 820.42 247.484C821.112 248.458 821.848 249.428 822.623 250.398C822.814 250.64 823.009 250.882 823.207 251.127C823.604 251.614 824.008 252.097 824.423 252.584V252.587C824.754 252.977 825.09 253.363 825.432 253.752C825.771 254.142 826.118 254.531 826.475 254.924C826.828 255.314 827.185 255.699 827.549 256.089C827.91 256.478 828.278 256.868 828.653 257.261C829.028 257.65 829.406 258.04 829.789 258.429C830.171 258.819 830.561 259.208 830.954 259.598H830.957C837.557 266.15 839.378 274.412 841.087 284.066C841.754 287.828 842.404 291.806 843.316 295.971C843.356 296.155 843.399 296.342 843.439 296.53C844.221 300.039 845.198 303.681 846.533 307.446C846.594 307.63 846.663 307.817 846.731 308.005C847.914 311.276 849.371 314.641 851.21 318.092C851.38 318.413 851.553 318.734 851.733 319.055V319.058C851.87 319.314 852.011 319.567 852.159 319.823C852.263 320.01 852.368 320.194 852.476 320.382C852.656 320.699 852.844 321.016 853.035 321.334L853.038 321.341C853.114 321.471 853.194 321.608 853.28 321.741C854.593 323.93 856.075 326.152 857.748 328.402C858.477 329.39 859.245 330.386 860.053 331.384C864.366 336.725 869.775 342.232 876.613 347.872C885.621 355.309 897.114 362.983 911.85 370.844C914.194 372.096 916.455 373.365 918.626 374.649C939.109 386.748 951.944 400.192 956.535 415.364C957.184 417.506 958.28 421.693 959.337 426.724C960.956 434.434 962.475 444.135 962.11 451.517Z" fill="#EBF3FA"/>
<path d="M962.074 451.51C962.085 451.6 962.089 451.69 962.096 451.78C961.703 459.447 960.671 466.692 959.16 473.504L918.626 479.862L910.259 481.175L905.499 481.921L872.519 487.096L869.57 487.558L862.938 488.6L861.214 488.871H861.203C861.203 488.871 859.782 489.037 857.315 489.271C857.11 489.293 856.893 489.311 856.673 489.332C855.033 489.484 852.999 489.66 850.665 489.837C849.789 489.906 848.87 489.971 847.914 490.035C847.734 490.046 847.553 490.061 847.369 490.072C846.031 490.162 844.629 490.245 843.164 490.328C840.15 490.49 836.897 490.631 833.51 490.713C832.194 490.746 830.856 490.771 829.507 490.789C828.804 490.796 828.094 490.8 827.383 490.8C826.529 490.804 825.67 490.804 824.808 490.796C823.535 490.789 822.255 490.768 820.979 490.735C820.041 490.713 819.1 490.685 818.166 490.652C816.86 490.602 815.558 490.537 814.264 490.461C814.065 490.45 813.867 490.436 813.669 490.421C813.066 490.385 812.464 490.346 811.865 490.299C808.894 490.075 805.994 489.769 803.236 489.361C802.77 489.293 802.312 489.22 801.858 489.145C791.483 487.45 783.379 484.215 781.515 478.423C779.82 473.118 783.484 465.57 795.572 455.073C797.585 453.327 799.683 451.654 801.858 450.056C815.886 439.742 833.157 432.432 851.253 427.272C852.003 427.055 852.753 426.846 853.507 426.641C853.623 426.608 853.738 426.576 853.853 426.543C854.059 426.489 854.264 426.432 854.47 426.377C854.878 426.266 855.285 426.157 855.689 426.053C856.403 425.862 857.117 425.674 857.835 425.494C861.448 424.571 865.083 423.73 868.718 422.966C869.634 422.771 870.55 422.584 871.466 422.4C871.896 422.313 872.325 422.227 872.75 422.144C873.046 422.082 873.342 422.025 873.637 421.971C874.088 421.884 874.539 421.797 874.99 421.715C890.136 418.855 905.135 417.21 918.626 416.305C933.819 415.281 947.105 415.198 956.535 415.364C957.624 417.996 958.554 422.01 959.337 426.724C960.574 434.127 961.461 443.266 962.074 451.51Z" fill="#A8D29F"/>
<path d="M506.958 110.644C506.958 110.644 518.621 86.5254 546.508 89.2048C546.508 89.2048 586.996 49.0093 630.17 83.8459C630.17 83.8459 676.064 75.2161 710.05 91.3217C732.711 102.058 740.198 113.324 740.198 113.324L506.958 110.644Z" fill="#F8FCFF"/>
<path d="M466.128 325.225C466.128 325.225 481.873 297.929 519.523 300.962C519.523 300.962 574.187 255.469 632.478 294.896C632.478 294.896 694.438 285.127 740.328 303.356C770.923 315.51 781.028 328.258 781.028 328.258L466.128 325.225Z" fill="#F8FCFF"/>
<path d="M725.567 204.783C725.567 204.783 713.659 184.378 685.227 189.431C656.792 194.483 664.358 227.336 648.624 242.782C632.886 258.224 619.164 271.985 625.922 293.8C632.677 315.618 596.798 320.281 596.903 353.228C597.007 386.171 604.674 405.591 648.779 408.155C692.887 410.719 763.437 399.064 772.99 385.774C782.543 372.485 780.938 343.31 756.949 306.083C732.964 268.855 754.879 265.516 738.849 243.958C722.816 222.403 734.103 213.661 725.567 204.783Z" fill="#79B27F"/>
<path d="M189.432 170.71C189.432 170.71 199.785 152.762 224.542 154.756C224.542 154.756 260.485 124.842 298.814 150.768C298.814 150.768 339.555 144.345 369.729 156.332C389.848 164.324 396.491 172.705 396.491 172.705L189.432 170.71Z" fill="#F8FCFF"/>
<path d="M520.522 479.491H512.151L513.955 242.169H518.196L520.522 479.491Z" fill="#739AF0"/>
<path d="M515.552 243.435L454.693 295.549L431.039 315.805L429.247 313.995L450.192 290.771L484.498 252.724L511.614 238.519L515.552 243.435Z" fill="#7FAAF7"/>
<path d="M454.693 295.549L431.039 315.805L429.247 313.995L450.192 290.771L454.693 295.549Z" fill="#F99746"/>
<path d="M519.685 239.922L513.745 242.032L483.907 165.954L473.117 138.445L475.418 137.349L489.893 163.682L515.163 209.647L519.685 239.922Z" fill="#7FAAF7"/>
<path d="M489.893 163.682L483.907 165.954L473.117 138.445L475.418 137.349L489.893 163.682Z" fill="#F99746"/>
<path d="M627.296 244.04L587.58 246.785L544.987 249.731L515.613 241.112L516.198 234.837L585.763 239.006L627.264 241.491L627.296 244.04Z" fill="#7FAAF7"/>
<path d="M627.296 244.04L586.159 246.882L585.763 239.006L627.264 241.491L627.296 244.04Z" fill="#F99746"/>
<path d="M515.934 234.037C512.923 233.856 510.334 236.153 510.154 239.165C509.973 242.176 512.27 244.765 515.282 244.946C518.293 245.126 520.882 242.829 521.063 239.817C521.243 236.806 518.949 234.217 515.934 234.037Z" fill="#2B478B"/>
<path d="M235.866 537.981H442.922L529.242 537.927H685.339C685.339 537.927 685.429 537.768 685.606 537.454C685.729 537.231 685.898 536.932 686.118 536.549L686.205 536.437C686.205 536.437 686.205 536.437 686.205 536.38C686.205 536.38 686.288 536.318 686.288 536.264C686.634 535.806 686.89 535.287 687.236 534.663C687.409 534.375 687.579 534.028 687.842 533.686C687.842 533.632 687.842 533.632 687.842 533.57C687.925 533.513 687.925 533.513 687.925 533.513C689.108 531.468 690.576 528.807 692.267 525.59C692.422 525.298 692.573 525.006 692.732 524.706C693.576 522.276 694.503 519.556 695.491 516.56C697.839 509.282 700.533 500.404 703.165 490.382C704.197 486.426 705.228 482.304 706.205 478.005C706.779 475.524 707.356 472.942 707.907 470.334C708.066 469.566 708.225 468.802 708.38 468.037C709.393 463.154 710.345 458.12 711.204 452.977C712.891 442.912 714.226 432.422 714.976 421.787C647.928 425.241 518.682 434.34 421.468 456.05C284.292 486.689 250.393 491.633 192.281 497.133C159.761 500.205 196.869 520.61 235.866 537.981Z" fill="#D4DFFF"/>
<path d="M323.06 504.803C323.06 504.803 545.228 437.135 601.169 432.234C657.113 427.333 603.52 438.787 603.52 438.787C603.52 438.787 451.476 478.34 416.134 495.211C341.398 530.884 323.06 504.803 323.06 504.803Z" fill="#D4DFFF"/>
<path d="M390.165 536.044C390.165 536.044 575.326 451.001 625.432 437.182C675.534 423.363 628.659 442.678 628.659 442.678C628.659 442.678 482.461 518.915 451.836 538.161C447.404 540.949 390.165 536.044 390.165 536.044Z" fill="#D4DFFF"/>
<path d="M354.582 443.861L355.621 271.632L315.584 310.299L299.286 325.997L297.919 324.792L312.14 307.017L335.386 277.921L353.432 267.038C353.378 266.984 353.378 266.984 353.378 266.929C353.378 266.053 353.706 265.289 354.142 264.632L331.174 214.916L322.147 195.446L323.734 194.515L335.386 213.001L355.729 245.27L359.613 263.536H438.533L438.645 265.397L408.893 269.227L379.137 273.107L360.818 268.899C360.378 269.717 359.613 270.319 358.74 270.648L360.049 440.031C358.138 440.961 356.277 442.22 354.582 443.861Z" fill="#CCDBFD"/>
<path d="M775.28 469.718H764.62L766.913 137.244H772.319L775.28 469.718Z" fill="#739AF0"/>
<path d="M767.818 126.653L813.568 35.4497L831.35 1.32786e-05L834.343 1.24059L821.209 38.8396L799.694 100.428L774.869 130.479L767.818 126.653Z" fill="#83AFFC"/>
<path d="M813.568 35.4497L831.35 -1.52774e-05L834.344 1.24056L821.209 38.8396L813.568 35.4497Z" fill="#F99746"/>
<path d="M764.699 132.812L770.631 127.406L843.186 202.009L869.418 228.984L867.262 231.404L837.279 207.628L784.937 166.127L764.699 132.812Z" fill="#83AFFC"/>
<path d="M837.279 207.628L843.186 202.009L869.418 228.984L867.262 231.404L837.279 207.628Z" fill="#F99746"/>
<path d="M636.326 181.053L681.6 158.24L730.155 133.775L768.89 129.408L771.302 137.06L687.568 166.477L637.621 184.028L636.326 181.053Z" fill="#83AFFC"/>
<path d="M636.326 181.053L683.219 157.425L687.568 166.477L637.621 184.028L636.326 181.053Z" fill="#F99746"/>
<path d="M772.002 137.872C775.63 136.599 777.534 132.628 776.261 129C774.988 125.376 771.017 123.468 767.389 124.741C763.765 126.018 761.861 129.988 763.134 133.613C764.407 137.237 768.377 139.145 772.002 137.872Z" fill="#2B478B"/>
<path d="M612.756 487.962C612.756 487.962 568.041 474.673 541.863 490.959C515.682 507.248 531.171 525.994 500.197 524.364C469.226 522.734 453.741 521.168 452.11 539.474H589.037L612.756 487.962Z" fill="#A8D29F"/>
<path d="M801.862 328.431V539.153H651.574V328.431H801.862Z" fill="#F9DDBF"/>
<path d="M918.629 334.039V539.135H801.858V328.402H913.541C915.294 330.263 916.988 332.124 918.629 334.039Z" fill="#FFF3E9"/>
<path d="M830.954 259.598L819.089 284.048L813.838 294.82L813.672 295.26L813.452 295.643L813.29 295.971L813.016 296.519L812.908 296.789L807.711 307.457L807.437 308.005L806.781 309.426L797.538 328.402L795.406 332.834L792.399 338.958L790.812 342.239H641.227L651.563 328.842L651.891 328.402L719.162 241.332L719.217 241.278H725.127L816.352 240.95C819.579 247.131 824.668 253.366 830.954 259.598Z" fill="#ED9F4A"/>
<path d="M801.862 341.248V358.771L651.574 365.121V342.265H647.124L725.12 241.256L801.862 341.248Z" fill="#F9DDBF"/>
<path d="M726.462 291.575H723.321C712.646 291.575 703.995 300.23 703.995 310.901V360.011H745.16V310.273C745.16 299.949 736.79 291.575 726.462 291.575Z" fill="#EFCDAF"/>
<path d="M932.33 347.872H799.096L792.37 338.958L784.44 328.402L722.037 245.216L719.137 241.332L718.809 240.896H852.039L852.368 241.332L855.267 245.216L917.674 328.402L925.6 338.958L932.33 347.872Z" fill="#F99746"/>
<path d="M708.812 370.581L673.756 442.757H567.248L622.778 370.844L708.812 370.581Z" fill="#ED9F4A"/>
<path d="M712.004 370.581L676.947 442.757H570.44L625.965 370.844L712.004 370.581Z" fill="#F9DDBF"/>
<path d="M676.713 442.757V538.955L570.44 539.16V442.757H676.713Z" fill="#F9DDBF"/>
<path d="M766.704 442.757V538.955H676.713V442.757H766.704Z" fill="#FFF3E9"/>
<path d="M776.596 447.023H679.919L622.774 370.841L651.574 370.848L717.789 370.862L776.596 447.023Z" fill="#F99746"/>
<path d="M617.75 410.914C617.75 408.137 620.001 405.89 622.778 405.89C625.551 405.89 627.801 408.137 627.801 410.914C627.801 413.687 625.551 415.937 622.778 415.937C620.001 415.937 617.75 413.687 617.75 410.914Z" fill="#EFCDAF"/>
<path d="M776.596 447.023H758.247L651.574 370.848L717.789 370.862L776.596 447.023Z" fill="#E88338"/>
<path d="M824.661 331.385H897.803L859.216 284.067H786.073L824.661 331.385Z" fill="#2B478B"/>
<path d="M796.038 296.53H869.18L868.726 295.974H795.583L796.038 296.53Z" fill="#AEC3FF"/>
<path d="M842.025 284.063L880.608 331.385H881.167L842.58 284.063H842.025Z" fill="#AEC3FF"/>
<path d="M822.645 284.063L861.232 331.385H861.787L823.2 284.063H822.645Z" fill="#AEC3FF"/>
<path d="M803.997 284.063L842.584 331.385H843.139L804.556 284.063H803.997Z" fill="#AEC3FF"/>
<path d="M805.594 308.005H878.737L878.282 307.446H805.14L805.594 308.005Z" fill="#AEC3FF"/>
<path d="M815.685 320.382H888.831L888.376 319.826H815.234L815.685 320.382Z" fill="#AEC3FF"/>
<path d="M854.2 298.567L854.622 296.292L850.482 294.009L850.063 296.292L854.2 298.567Z" fill="#AEC3FF"/>
<path d="M835.029 298.567L835.451 296.292L831.311 294.009L830.892 296.292L835.029 298.567Z" fill="#AEC3FF"/>
<path d="M816.103 298.567L816.525 296.292L812.385 294.009L811.966 296.292L816.103 298.567Z" fill="#AEC3FF"/>
<path d="M863.525 310.006L863.944 307.727L859.807 305.448L859.385 307.727L863.525 310.006Z" fill="#AEC3FF"/>
<path d="M844.355 310.006L844.773 307.727L840.636 305.448L840.215 307.727L844.355 310.006Z" fill="#AEC3FF"/>
<path d="M825.429 310.006L825.847 307.727L821.711 305.448L821.289 307.727L825.429 310.006Z" fill="#AEC3FF"/>
<path d="M873.616 322.383L874.038 320.104L869.901 317.825L869.48 320.104L873.616 322.383Z" fill="#AEC3FF"/>
<path d="M854.445 322.383L854.867 320.104L850.73 317.825L850.308 320.104L854.445 322.383Z" fill="#AEC3FF"/>
<path d="M835.519 322.383L835.941 320.104L831.805 317.825L831.383 320.104L835.519 322.383Z" fill="#AEC3FF"/>
<path d="M686.598 432.353H752.874L717.911 389.474H651.635L686.598 432.353Z" fill="#2B478B"/>
<path d="M660.662 400.769H726.938L726.527 400.264H660.25L660.662 400.769Z" fill="#AEC3FF"/>
<path d="M702.332 389.474L737.295 432.353H737.8L702.837 389.474H702.332Z" fill="#AEC3FF"/>
<path d="M684.773 389.474L719.736 432.353H720.237L685.278 389.474H684.773Z" fill="#AEC3FF"/>
<path d="M667.874 389.474L702.837 432.353H703.342L668.379 389.474H667.874Z" fill="#AEC3FF"/>
<path d="M669.32 411.166H735.596L735.185 410.661H668.909L669.32 411.166Z" fill="#AEC3FF"/>
<path d="M678.466 422.382H744.742L744.331 421.877H678.055L678.466 422.382Z" fill="#AEC3FF"/>
<path d="M713.364 402.616L713.746 400.553L709.995 398.487L709.613 400.553L713.364 402.616Z" fill="#AEC3FF"/>
<path d="M695.992 402.616L696.374 400.553L692.624 398.487L692.245 400.553L695.992 402.616Z" fill="#AEC3FF"/>
<path d="M678.844 402.616L679.227 400.553L675.476 398.487L675.094 400.553L678.844 402.616Z" fill="#AEC3FF"/>
<path d="M721.813 412.98L722.195 410.914L718.445 408.847L718.063 410.914L721.813 412.98Z" fill="#AEC3FF"/>
<path d="M704.442 412.98L704.824 410.914L701.073 408.847L700.695 410.914L704.442 412.98Z" fill="#AEC3FF"/>
<path d="M687.294 412.98L687.676 410.914L683.926 408.847L683.543 410.914L687.294 412.98Z" fill="#AEC3FF"/>
<path d="M730.959 424.196L731.341 422.129L727.59 420.063L727.208 422.129L730.959 424.196Z" fill="#AEC3FF"/>
<path d="M713.587 424.196L713.969 422.129L710.219 420.063L709.837 422.129L713.587 424.196Z" fill="#AEC3FF"/>
<path d="M696.439 424.196L696.818 422.129L693.071 420.063L692.689 422.129L696.439 424.196Z" fill="#AEC3FF"/>
<path d="M301.399 537.981C301.377 538.042 301.355 538.1 301.333 538.161H50.4991L50.4951 538.15C50.4951 538.096 50.4378 538.039 50.4378 538.039C50.304 537.728 21.4105 497.771 12.8207 442.952C19.0988 440.539 41.2666 433.045 72.4537 433.857C73.7087 433.889 74.9781 433.936 76.262 433.998C87.7696 434.535 100.417 436.226 113.879 439.699C114.352 439.822 114.828 439.944 115.304 440.07C115.437 440.107 115.57 440.143 115.704 440.179C116.656 440.435 117.608 440.698 118.568 440.972C119.642 441.279 120.717 441.596 121.802 441.924C122.188 442.043 122.577 442.162 122.967 442.281C124.402 442.728 125.845 443.197 127.298 443.684C144.24 449.385 154.753 455.531 162.07 461.47C162.221 461.593 162.373 461.715 162.525 461.838C166.037 464.741 168.803 467.594 171.194 470.316C171.846 471.059 172.474 471.791 173.08 472.513C173.83 473.411 174.551 474.29 175.258 475.152C177.628 478.045 179.816 480.713 182.384 483.043C189.467 489.487 199.424 493.382 223.975 492.405C228.379 492.228 232.587 492.188 236.608 492.275C289.4 493.375 309.475 516.001 301.399 537.981Z" fill="#A8D29F"/>
<path d="M962.11 451.517L962.074 451.51C952.449 449.587 937.335 447.272 918.626 446.717C907.035 446.371 894.06 446.699 880.158 448.213C879.667 448.268 879.173 448.322 878.679 448.376C877.229 448.545 875.769 448.722 874.297 448.917C871.088 449.335 867.831 449.822 864.539 450.377H864.528C863.547 450.543 862.573 450.713 861.585 450.893C860.529 451.08 859.468 451.279 858.405 451.484C856.125 451.924 853.825 452.4 851.509 452.912C850.492 453.136 849.472 453.37 848.448 453.612C847.423 453.846 846.399 454.095 845.368 454.348C844.12 454.658 842.869 454.975 841.614 455.303H841.61C841.221 455.408 840.828 455.513 840.438 455.617H840.435C839.284 455.927 838.13 456.245 836.973 456.573C832.295 457.896 827.567 459.379 822.811 461.034C814.999 463.731 808.061 466.389 801.858 468.978C793.986 472.257 787.296 475.426 781.515 478.423C775.806 481.373 770.96 484.175 766.704 486.79C743.653 500.955 737.977 509.697 706.533 507.248C703.731 507.035 701.048 506.949 698.477 506.985C690.053 507.093 682.847 508.453 676.713 510.548C664.416 514.746 656.428 521.911 651.57 527.891C647.567 532.817 645.685 536.935 645.263 537.923C645.198 538.071 645.169 538.15 645.169 538.15H651.57H676.713H766.704H801.858H810.834H817.134H894.543H900.843H918.626H925.139C930.335 532.572 951.173 509.545 959.16 473.504C960.671 466.692 961.703 459.447 962.096 451.78L962.11 451.517Z" fill="#A8D29F"/>
<path d="M140.475 301.961C140.475 301.961 146.519 290.655 160.972 291.91C160.972 291.91 181.956 273.067 204.333 289.397C204.333 289.397 228.119 285.354 245.735 292.902C257.48 297.936 261.359 303.216 261.359 303.216L140.475 301.961Z" fill="#F8FCFF"/>
<path d="M366.021 204.526C366.021 204.526 371.027 193.776 382.996 194.97C382.996 194.97 400.375 177.05 418.904 192.579C418.904 192.579 438.601 188.731 453.189 195.911C462.915 200.7 466.128 205.72 466.128 205.72L366.021 204.526Z" fill="#F8FCFF"/>
<path d="M155.333 536.409L169.618 536.232L202.979 397.217L188.695 397.397L155.333 536.409Z" fill="#1D3F77"/>
<path d="M131.734 539.503H195.793C195.793 535.756 192.755 532.716 189.007 532.716H138.521C134.773 532.716 131.734 535.756 131.734 539.503Z" fill="#1D3F77"/>
<path d="M279.711 475.138L273.559 444.293L273.546 444.229L253.07 341.572L54.053 341.601L80.6944 475.167L118.497 475.163H118.852L161.158 475.156H161.288L203.408 475.152L203.697 475.149L245.726 475.145H246.107L279.711 475.138Z" fill="#1D3F77"/>
<path d="M283.12 472.498L84.1031 472.527L57.4621 341.601L256.479 341.572L283.12 472.498Z" fill="#2A4E96"/>
<path d="M122.286 472.523H121.906L95.3359 341.947H95.7168L122.286 472.523Z" fill="#C0D8FB"/>
<path d="M164.696 472.516H164.315L137.746 341.944H138.127L164.696 472.516Z" fill="#C0D8FB"/>
<path d="M207.106 472.509H206.725L180.156 341.936H180.536L207.106 472.509Z" fill="#C0D8FB"/>
<path d="M249.516 472.505H249.135L222.565 341.929H222.946L249.516 472.505Z" fill="#C0D8FB"/>
<path d="M262.801 372.644L63.7846 372.673L63.7117 372.316L262.729 372.287L262.801 372.644Z" fill="#C0D8FB"/>
<path d="M269.884 407.455L70.8673 407.481L70.7949 407.124L269.812 407.095L269.884 407.455Z" fill="#C0D8FB"/>
<path d="M276.967 442.263L77.9504 442.288L77.8776 441.931L276.894 441.902L276.967 442.263Z" fill="#C0D8FB"/>
<path d="M102.524 376.337L97.6439 372.489L100.958 368.641L105.838 372.489L102.524 376.337Z" fill="#C0D8FB"/>
<path d="M109.643 411.325L104.763 407.477L108.077 403.629L112.957 407.477L109.643 411.325Z" fill="#C0D8FB"/>
<path d="M145.124 376.333L140.244 372.485L143.558 368.634L148.438 372.482L145.124 376.333Z" fill="#C0D8FB"/>
<path d="M152.244 411.318L147.364 407.47L150.678 403.622L155.558 407.47L152.244 411.318Z" fill="#C0D8FB"/>
<path d="M187.534 376.326L182.654 372.478L185.968 368.63L190.848 372.478L187.534 376.326Z" fill="#C0D8FB"/>
<path d="M229.563 376.319L224.683 372.471L227.997 368.623L232.877 372.471L229.563 376.319Z" fill="#C0D8FB"/>
<path d="M116.69 445.956L111.81 442.108L115.124 438.257L120.004 442.104L116.69 445.956Z" fill="#C0D8FB"/>
<path d="M159.29 445.949L154.41 442.101L157.724 438.253L162.604 442.101L159.29 445.949Z" fill="#C0D8FB"/>
<path d="M201.7 445.942L196.82 442.094L200.134 438.246L205.014 442.094L201.7 445.942Z" fill="#C0D8FB"/>
<path d="M243.729 445.938L238.849 442.09L242.163 438.239L247.043 442.086L243.729 445.938Z" fill="#C0D8FB"/>
<path d="M236.683 411.307L231.803 407.459L235.116 403.611L239.996 407.459L236.683 411.307Z" fill="#C0D8FB"/>
<path d="M194.654 411.314L189.774 407.466L193.087 403.615L197.967 407.463L194.654 411.314Z" fill="#C0D8FB"/>
<path d="M362.498 537.379L372.307 537.256L395.211 441.812L385.402 441.935L362.498 537.379Z" fill="#1D3F77"/>
<path d="M346.295 539.503H390.277C390.277 536.932 388.189 534.843 385.618 534.843H350.954C348.383 534.843 346.295 536.932 346.295 539.503Z" fill="#1D3F77"/>
<path d="M447.895 495.311L443.668 474.135L443.661 474.089L429.604 403.611L292.962 403.629L311.253 495.333L337.207 495.33H337.452L366.497 495.326H366.588L395.506 495.322L395.705 495.319L424.559 495.315H424.822L447.895 495.311Z" fill="#1D3F77"/>
<path d="M450.232 493.501L313.593 493.519L295.302 403.629L431.941 403.611L450.232 493.501Z" fill="#2A4E96"/>
<path d="M339.807 493.516H339.548L321.307 403.867H321.567L339.807 493.516Z" fill="#C0D8FB"/>
<path d="M368.928 493.512H368.665L350.424 403.863H350.684L368.928 493.512Z" fill="#C0D8FB"/>
<path d="M398.045 493.508H397.782L379.541 403.86H379.801L398.045 493.508Z" fill="#C0D8FB"/>
<path d="M427.162 493.505H426.899L408.658 403.856H408.918L427.162 493.505Z" fill="#C0D8FB"/>
<path d="M436.282 424.942L299.643 424.964L299.593 424.715L436.232 424.697L436.282 424.942Z" fill="#C0D8FB"/>
<path d="M441.147 448.841L304.506 448.863L304.456 448.614L441.097 448.596L441.147 448.841Z" fill="#C0D8FB"/>
<path d="M446.009 472.74L309.37 472.758L309.32 472.513L445.958 472.495L446.009 472.74Z" fill="#C0D8FB"/>
<path d="M326.241 427.477L322.89 424.838L325.166 422.194L328.516 424.834L326.241 427.477Z" fill="#C0D8FB"/>
<path d="M331.127 451.499L327.777 448.859L330.052 446.216L333.403 448.855L331.127 451.499Z" fill="#C0D8FB"/>
<path d="M355.487 427.474L352.137 424.83L354.413 422.191L357.763 424.83L355.487 427.474Z" fill="#C0D8FB"/>
<path d="M360.378 451.495L357.027 448.852L359.303 446.212L362.653 448.852L360.378 451.495Z" fill="#C0D8FB"/>
<path d="M384.608 427.47L381.254 424.827L383.53 422.183L386.88 424.827L384.608 427.47Z" fill="#C0D8FB"/>
<path d="M413.462 427.467L410.112 424.823L412.387 422.18L415.738 424.823L413.462 427.467Z" fill="#C0D8FB"/>
<path d="M335.967 475.275L332.616 472.632L334.892 469.992L338.242 472.632L335.967 475.275Z" fill="#C0D8FB"/>
<path d="M365.214 475.271L361.863 472.628L364.139 469.985L367.489 472.628L365.214 475.271Z" fill="#C0D8FB"/>
<path d="M394.334 475.268L390.98 472.624L393.256 469.981L396.606 472.624L394.334 475.268Z" fill="#C0D8FB"/>
<path d="M423.188 475.264L419.838 472.621L422.113 469.977L425.464 472.621L423.188 475.264Z" fill="#C0D8FB"/>
<path d="M418.352 451.488L415.002 448.845L417.274 446.201L420.624 448.845L418.352 451.488Z" fill="#C0D8FB"/>
<path d="M389.495 451.492L386.144 448.848L388.42 446.208L391.77 448.848L389.495 451.492Z" fill="#C0D8FB"/>
<path d="M570.66 505.304L573.909 504.67C573.909 504.67 566.141 473.937 567.205 471.402C568.067 469.296 577.025 467.774 581.414 464.092C582.355 463.306 583.065 462.444 583.469 461.456C585.806 455.743 581.998 451.506 581.998 451.506C581.998 451.506 574.031 453.334 566.797 456.429C561.648 458.636 556.876 461.506 555.557 464.828C552.387 472.873 570.66 505.304 570.66 505.304Z" fill="#E8945B"/>
<path d="M561.813 510.043C561.864 509.722 562.077 509.437 562.39 509.264C563.166 508.839 564.749 508.226 565.932 506.642C566.599 505.755 569.354 503.123 569.354 503.123L569.372 503.115C569.441 503.097 569.801 503.105 571.55 503.819C572.452 504.187 573.39 502.492 573.39 502.492C573.39 502.492 573.678 502.607 573.945 502.892C574.158 503.112 574.356 503.444 574.385 503.909C574.432 504.558 575.106 505.618 575.607 506.321C575.91 506.751 576.152 507.046 576.152 507.046C576.152 507.046 576.339 507.414 574.803 507.995L572.968 508.471C572.329 508.543 571.835 508.503 571.182 508.593C570.198 508.73 569.845 509.192 569.776 509.297L569.765 509.315L561.958 511.334C561.698 511.136 561.738 510.512 561.813 510.043Z" fill="#415DA5"/>
<path d="M546.508 511.269C547.309 511.269 547.962 510.62 547.962 509.819C547.962 491.821 533.317 477.175 515.318 477.175C511.163 477.175 507.113 477.947 503.291 479.465C502.544 479.758 502.184 480.605 502.479 481.348C502.775 482.091 503.612 482.455 504.362 482.163C507.842 480.778 511.531 480.075 515.318 480.075C531.719 480.075 545.059 493.418 545.059 509.819C545.059 510.62 545.708 511.269 546.508 511.269Z" fill="#2C3A64"/>
<path d="M520.244 509.816C520.244 507.147 518.08 504.983 515.408 504.983C512.739 504.983 510.575 507.147 510.575 509.816C510.575 512.488 512.739 514.652 515.408 514.652C518.08 514.652 520.244 512.488 520.244 509.816Z" fill="#415DA5"/>
<path d="M515.938 509.6L524.128 486.772L523.511 486.548L515.318 509.38L515.938 509.6Z" fill="#415DA5"/>
<path d="M538.546 520.112L538.805 519.51L515.624 509.553L500.384 487.782L499.847 488.16L515.195 510.083L515.282 510.119L538.546 520.112Z" fill="#415DA5"/>
<path d="M524.6 534.991L525.224 534.782C525.058 534.292 516.097 510.703 515.714 509.701L515.484 509.087L501.04 531.926L501.596 532.276L515.336 510.548C518.617 519.185 524.478 534.616 524.6 534.991Z" fill="#415DA5"/>
<path d="M515.466 508.503L541.189 504.078L541.077 503.433L515.354 507.854L515.466 508.503Z" fill="#415DA5"/>
<path d="M513.46 508.117L514.081 507.912L506.544 485.3L505.923 485.506L513.46 508.117Z" fill="#415DA5"/>
<path d="M515.462 510.159L515.556 510.108L539.152 498.15L538.856 497.565L515.357 509.477L490.067 505.232L489.958 505.881L515.462 510.159Z" fill="#415DA5"/>
<path d="M505.891 534.169C506.028 533.758 512.083 518.86 515.473 510.53L528.567 531.129L529.123 530.779L515.347 509.105L515.105 509.693C514.712 510.663 505.433 533.466 505.267 533.964L505.891 534.169Z" fill="#415DA5"/>
<path d="M540.756 513.909L540.854 513.26L515.458 509.491L515.361 510.14L540.756 513.909Z" fill="#415DA5"/>
<path d="M516.966 506.426L531.059 490.205L530.565 489.776L516.472 505.997L516.966 506.426Z" fill="#415DA5"/>
<path d="M516.23 535.406L516.883 535.352L514.917 511.594L514.265 511.648L516.23 535.406Z" fill="#415DA5"/>
<path d="M494.297 524.342L516.742 508.777L516.371 508.236L493.922 523.801L494.297 524.342Z" fill="#415DA5"/>
<path d="M534.02 527.415L534.485 526.953L515.736 508.045V483.436H515.083V508.312L534.02 527.415Z" fill="#415DA5"/>
<path d="M537.965 519.149C537.886 519.351 537.799 519.553 537.705 519.751C536.67 522.07 535.282 524.198 533.609 526.069C533.464 526.235 533.317 526.398 533.165 526.556C531.852 527.945 530.381 529.182 528.776 530.235C528.596 530.357 528.412 530.473 528.225 530.588C527.009 531.342 525.722 531.991 524.377 532.525C524.175 532.604 523.969 532.683 523.764 532.759C521.567 533.56 519.223 534.057 516.785 534.191C516.565 534.205 516.349 534.212 516.129 534.22C515.887 534.227 515.649 534.23 515.408 534.23C512.357 534.23 509.342 533.661 506.529 532.561C506.324 532.485 506.122 532.402 505.92 532.319C504.939 531.901 503.983 531.425 503.06 530.88C502.919 530.797 502.779 530.711 502.638 530.624C502.451 530.512 502.267 530.397 502.086 530.274C499.573 528.637 497.38 526.545 495.624 524.122C495.512 523.967 495.4 523.808 495.292 523.65C495.166 523.469 495.043 523.285 494.928 523.101C494.704 522.766 494.495 522.427 494.293 522.081C493.099 520.029 492.216 517.815 491.668 515.514C491.221 513.657 490.993 511.742 490.993 509.816C490.993 508.55 491.091 507.31 491.275 506.098C491.311 505.881 491.347 505.665 491.383 505.452C492.53 499.123 496.125 493.638 501.145 490.014C501.322 489.884 501.502 489.758 501.682 489.635C503.165 488.622 504.762 487.771 506.45 487.1C506.655 487.021 506.861 486.945 507.067 486.869C509.573 485.953 512.27 485.441 515.08 485.405C515.188 485.401 515.3 485.401 515.408 485.401C515.516 485.401 515.628 485.401 515.736 485.405C518.361 485.437 520.889 485.888 523.252 486.692H523.255C523.316 486.714 523.374 486.736 523.435 486.757C523.645 486.829 523.847 486.905 524.052 486.981C525.123 487.388 526.158 487.868 527.15 488.413C528.178 488.979 529.159 489.617 530.089 490.32C530.266 490.45 530.435 490.584 530.605 490.724C531.517 491.449 532.379 492.243 533.18 493.09C533.962 493.919 534.683 494.807 535.343 495.741C535.964 496.613 536.53 497.529 537.027 498.485C537.132 498.68 537.233 498.874 537.327 499.069C538.063 500.559 538.647 502.135 539.069 503.775C539.119 503.988 539.173 504.201 539.22 504.417C539.613 506.156 539.822 507.962 539.822 509.816C539.822 510.919 539.75 512.009 539.606 513.076C539.577 513.292 539.545 513.512 539.509 513.725C539.206 515.615 538.683 517.432 537.965 519.149ZM538.419 493.281C537.897 492.556 537.338 491.853 536.75 491.182C534.514 488.625 531.827 486.472 528.816 484.85C527.503 484.139 526.129 483.533 524.705 483.039C521.791 482.022 518.664 481.471 515.408 481.471C514.398 481.471 513.399 481.525 512.418 481.629H512.415C506.533 482.25 501.181 484.677 496.929 488.337L496.926 488.341C490.892 493.544 487.062 501.24 487.062 509.816C487.062 512.412 487.42 514.987 488.112 517.465C488.732 519.693 489.63 521.846 490.788 523.866C490.82 523.931 490.86 523.992 490.896 524.057C493.348 528.269 496.864 531.803 501.066 534.27C504.365 536.21 508.033 537.454 511.827 537.934H511.834H511.841C513.017 538.086 514.214 538.161 515.408 538.161C516.638 538.161 517.853 538.082 519.043 537.93H519.05C532.97 536.135 543.753 524.216 543.753 509.816C543.753 503.649 541.777 497.937 538.419 493.281Z" fill="#202E51"/>
<path d="M570.173 514.198L586.834 462.094L584.025 461.196L567.364 513.3L570.173 514.198Z" fill="#739CF3"/>
<path d="M571.572 514.345L610.891 510.927L537.972 461.625L542.145 470.165L602.344 508.709L571.32 511.406L571.572 514.345Z" fill="#739CF3"/>
<path d="M566.274 512.037L568.752 510.436L538.499 461.971L534.976 465.617L566.274 512.037Z" fill="#739CF3"/>
<path d="M517.759 508.518L534.608 472.458L532.35 471.557C530.882 470.969 529.216 471.687 528.636 473.154L515.026 507.403L517.759 508.518Z" fill="#415DA5"/>
<path d="M534.608 472.458C537.045 466.133 541.113 456.194 541.048 456.292L538.596 454.654C538.477 454.835 538.398 454.954 532.004 471.546L534.608 472.458Z" fill="#415DA5"/>
<path d="M548.752 459.746C549.714 458.405 549.412 456.533 548.07 455.57C546.728 454.604 544.86 454.91 543.894 456.252C542.931 457.593 543.234 459.461 544.575 460.424C545.917 461.391 547.785 461.088 548.752 459.746Z" fill="#415DA5"/>
<path d="M537.424 451.914C538.391 450.572 538.088 448.704 536.746 447.737C535.405 446.775 533.533 447.078 532.57 448.419C531.604 449.761 531.91 451.629 533.252 452.595C534.59 453.558 536.461 453.255 537.424 451.914Z" fill="#415DA5"/>
<path d="M534.507 452.974L545.935 460.244L547.518 457.125L536.093 449.854L534.507 452.974Z" fill="#415DA5"/>
<path d="M553.313 521.287H559.704C560.454 521.287 561.067 520.671 561.067 519.921C561.067 519.171 560.454 518.558 559.704 518.558H553.313C552.563 518.558 551.947 519.171 551.947 519.921C551.947 520.671 552.563 521.287 553.313 521.287Z" fill="#415DA5"/>
<path d="M556.447 519.625L569.39 513.725L568.914 512.683L555.971 518.579L556.447 519.625Z" fill="#415DA5"/>
<path d="M611.454 509.816C611.454 507.147 609.286 504.983 606.618 504.983C603.949 504.983 601.785 507.147 601.785 509.816C601.785 512.488 603.949 514.652 606.618 514.652C609.286 514.652 611.454 512.488 611.454 509.816Z" fill="#415DA5"/>
<path d="M607.144 509.6L615.338 486.772L614.721 486.548L606.528 509.38L607.144 509.6Z" fill="#415DA5"/>
<path d="M629.756 520.112L630.015 519.51L606.834 509.553L591.594 487.782L591.057 488.16L606.405 510.083L606.488 510.119L629.756 520.112Z" fill="#415DA5"/>
<path d="M615.81 534.991L616.434 534.782C616.268 534.292 607.307 510.703 606.924 509.701L606.694 509.087L592.25 531.926L592.806 532.276L606.546 510.548C609.827 519.185 615.688 534.616 615.81 534.991Z" fill="#415DA5"/>
<path d="M606.676 508.503L632.399 504.078L632.287 503.433L606.564 507.854L606.676 508.503Z" fill="#415DA5"/>
<path d="M604.67 508.117L605.291 507.912L597.754 485.3L597.133 485.506L604.67 508.117Z" fill="#415DA5"/>
<path d="M606.672 510.159L606.766 510.108L630.362 498.15L630.066 497.565L606.567 509.477L581.276 505.232L581.168 505.881L606.672 510.159Z" fill="#415DA5"/>
<path d="M597.097 534.169C597.238 533.758 603.293 518.86 606.683 510.53L619.777 531.129L620.333 530.779L606.553 509.105L606.315 509.693C605.922 510.663 596.643 533.466 596.477 533.964L597.097 534.169Z" fill="#415DA5"/>
<path d="M631.966 513.909L632.064 513.26L606.668 509.491L606.571 510.14L631.966 513.909Z" fill="#415DA5"/>
<path d="M608.176 506.426L622.269 490.205L621.771 489.776L607.682 505.997L608.176 506.426Z" fill="#415DA5"/>
<path d="M607.44 535.406L608.093 535.352L606.127 511.594L605.475 511.648L607.44 535.406Z" fill="#415DA5"/>
<path d="M585.507 524.342L607.952 508.777L607.581 508.236L585.132 523.801L585.507 524.342Z" fill="#415DA5"/>
<path d="M625.23 527.415L625.695 526.953L606.946 508.045V483.436H606.29V508.312L625.23 527.415Z" fill="#415DA5"/>
<path d="M629.175 519.149C629.096 519.351 629.009 519.553 628.915 519.751C627.88 522.07 626.492 524.198 624.819 526.069C624.674 526.235 624.527 526.398 624.375 526.556C623.062 527.945 621.591 529.182 619.986 530.235C619.806 530.357 619.622 530.473 619.435 530.588C618.219 531.342 616.932 531.991 615.587 532.525C615.385 532.604 615.179 532.683 614.974 532.759C612.774 533.56 610.43 534.057 607.992 534.191C607.775 534.205 607.555 534.212 607.339 534.22C607.098 534.227 606.859 534.23 606.618 534.23C603.563 534.23 600.552 533.661 597.739 532.561C597.534 532.485 597.332 532.402 597.13 532.319C596.149 531.901 595.193 531.425 594.27 530.88C594.129 530.797 593.989 530.711 593.848 530.624C593.66 530.512 593.477 530.397 593.296 530.274L593.278 530.264C590.61 528.522 588.305 526.268 586.502 523.65C586.376 523.469 586.253 523.285 586.138 523.101C585.914 522.766 585.705 522.427 585.503 522.081C583.945 519.405 582.917 516.455 582.47 513.397C582.322 512.427 582.239 511.446 582.214 510.458C582.207 510.245 582.203 510.029 582.203 509.816C582.203 508.55 582.301 507.31 582.485 506.098C582.521 505.881 582.557 505.665 582.593 505.452C583.087 502.73 584.032 500.162 585.355 497.832C585.921 496.822 586.56 495.86 587.263 494.951C588.713 493.068 590.429 491.402 592.355 490.014C592.532 489.884 592.712 489.758 592.892 489.635C594.374 488.622 595.972 487.771 597.66 487.1C597.865 487.021 598.071 486.945 598.277 486.869C599.806 486.31 601.396 485.903 603.048 485.661H603.051C604.111 485.506 605.19 485.419 606.29 485.405C606.398 485.401 606.51 485.401 606.618 485.401C606.726 485.401 606.838 485.401 606.946 485.405C609.64 485.437 612.229 485.913 614.645 486.757C614.855 486.829 615.057 486.905 615.262 486.981C617.44 487.807 619.471 488.939 621.299 490.32C621.476 490.45 621.645 490.584 621.815 490.724C624.458 492.83 626.654 495.47 628.238 498.485C628.342 498.68 628.443 498.874 628.537 499.069C629.272 500.559 629.857 502.135 630.279 503.775C630.329 503.988 630.383 504.201 630.426 504.417C630.823 506.156 631.032 507.962 631.032 509.816C631.032 510.919 630.96 512.009 630.816 513.076C630.787 513.292 630.755 513.512 630.719 513.725C630.416 515.615 629.893 517.432 629.175 519.149ZM606.618 481.471C602.28 481.471 598.165 482.451 594.486 484.204C590.339 486.17 586.744 489.119 584.003 492.747C583.289 493.689 582.633 494.68 582.041 495.708C579.643 499.863 578.273 504.684 578.273 509.816C578.273 510.144 578.28 510.472 578.291 510.8C578.323 511.785 578.41 512.766 578.543 513.74C579.051 517.371 580.256 520.884 582.102 524.057C584.425 528.046 587.707 531.428 591.619 533.87C591.836 534.007 592.056 534.14 592.276 534.27C595.55 536.196 599.182 537.433 602.939 537.923C604.155 538.082 605.385 538.161 606.618 538.161C607.866 538.161 609.095 538.082 610.3 537.923C624.195 536.113 634.963 524.198 634.963 509.816C634.963 494.186 622.247 481.471 606.618 481.471Z" fill="#202E51"/>
<path d="M583.52 480.731C583.934 480.879 584.392 480.832 584.771 480.605C598.031 472.592 616.384 475.6 621.692 476.714L621.699 476.718C621.991 476.779 622.265 476.555 622.265 476.256V475.221C622.265 474.428 621.688 473.753 620.902 473.638C618.032 473.209 611.324 472.293 607.574 472.275C607.473 472.275 607.372 472.275 607.271 472.275C598.875 472.275 591.627 473.778 585.669 476.746C584.454 477.352 583.044 477.439 581.76 476.988L580.126 476.415C579.192 476.086 578.168 476.577 577.84 477.511C577.627 478.113 577.944 478.773 578.547 478.986L583.52 480.731Z" fill="#F99746"/>
<path d="M595.846 460.54C595.846 460.54 596.38 458.124 594.861 457.958C593.347 457.795 587.818 458.982 586.343 458.82C584.868 458.654 577.165 457.384 575.817 458.697C574.464 460.006 575.038 461.153 577.739 461.398C580.443 461.647 584.05 462.094 585.074 462.956C586.098 463.818 593.509 466.357 595.846 460.54Z" fill="#F99746"/>
<path d="M576.141 513.75C576.141 509.679 572.841 506.376 568.77 506.376C564.698 506.376 561.395 509.679 561.395 513.75C561.395 517.822 564.698 521.122 568.77 521.122C572.841 521.122 576.141 517.822 576.141 513.75Z" fill="#2C3A64"/>
<path d="M543.075 451.254C543.075 451.254 540.663 448.192 539.343 448.57C537.064 449.23 536.876 451.311 536.93 451.737C536.988 452.162 536.959 453.836 537.972 454.193C538.982 454.55 540.035 454.11 540.5 453.72C540.969 453.327 543.075 451.254 543.075 451.254Z" fill="#E8945B"/>
<path d="M538.978 448.78C538.978 448.78 539.314 450.684 541.622 451.318C543.934 451.928 558.214 445.916 561.615 444.243C563.44 443.327 566.08 438.253 568.11 433.814C568.593 432.721 569.048 431.682 569.455 430.741C570.472 428.383 571.128 426.684 571.128 426.684C571.128 424.347 568.554 425.26 566.22 426.327C565.506 426.655 561.788 425.083 560.8 426.987C560.342 427.874 559.736 427.773 559.278 428.765C557.479 432.746 555.831 437.24 555.474 438.303C554.839 440.208 538.978 448.78 538.978 448.78Z" fill="#E8945B"/>
<path d="M544.86 453.035C544.86 453.035 542.459 450.024 541.124 450.356C537.987 451.138 538.409 453.403 538.466 453.828C538.52 454.25 538.744 455.621 539.757 455.978C540.767 456.335 541.82 455.895 542.285 455.502C542.754 455.112 544.86 453.035 544.86 453.035Z" fill="#FFB27D"/>
<path d="M572.47 422.84L564.32 425.847C563.281 424.838 562.235 423.229 561.399 421.758C560.36 419.933 559.639 418.321 559.639 418.321L565.33 414.333L567.118 413.081C567.234 416.713 572.47 422.84 572.47 422.84Z" fill="#FFB27D"/>
<path d="M567.551 415.05C567.551 415.05 565.935 420.077 561.399 421.758C560.36 419.933 559.639 418.321 559.639 418.321L565.33 414.332L567.551 415.05Z" fill="#E8945B"/>
<path d="M557.06 418.198C557.06 418.198 567.136 419.778 568.023 413.485C568.911 407.196 570.807 403.164 564.414 401.891C558.016 400.614 556.426 402.839 555.618 404.866C554.81 406.893 554.46 417.625 557.06 418.198Z" fill="#FFB27D"/>
<path d="M570.285 400.744C570.285 400.744 569.827 400.838 569.459 401.22L569.452 401.213C569.426 399.857 568.096 398.486 568.096 398.486C568.734 399.291 568.528 400.776 568.528 400.776C566.631 397.534 557.392 400.084 556.527 400.3C555.661 400.517 555.048 399.219 555.048 399.219C553.681 400.401 553.162 403.301 554.294 405.198C555.427 407.091 559.105 409.879 560.162 409.349C561.222 408.818 561.222 409.915 561.168 411.455C561.114 412.991 563.779 415.58 565.658 415.955C567.172 416.258 567.291 415.223 567.706 414.56C567.807 414.397 567.93 414.246 568.074 414.116C570.137 412.255 571.273 408.534 570.811 404.866C570.627 403.413 570.025 402.187 569.686 401.595C569.823 401.364 570.09 400.928 570.285 400.744Z" fill="#2C3A64"/>
<path d="M566.797 456.429C566.902 456.887 568.016 460.641 570.908 461.607C572.787 462.242 577.357 463.789 581.414 464.092C582.355 463.306 583.065 462.444 583.469 461.456C585.806 455.743 581.998 451.506 581.998 451.506C581.998 451.506 574.031 453.334 566.797 456.429Z" fill="#2C3A64"/>
<path d="M589.683 443.186C589.683 443.186 597.847 452.592 590.35 463.162C582.856 473.735 570.649 482.264 569.978 486.036C568.676 493.332 560.905 508.399 557.205 515.853L554.035 514.638C554.035 514.638 559.981 479.307 562.098 475.08C564.212 470.85 575.167 451.052 575.167 451.052L589.683 443.186Z" fill="#FFB27D"/>
<path d="M559.188 428.289C559.974 428.541 561.875 429.252 562.383 430.117C562.917 430.979 568.499 428.566 569.159 426.309C567.562 424.56 564.821 423.063 563.22 423.568C562.282 423.849 560.76 425.851 559.188 428.289Z" fill="#5885D6"/>
<path d="M591.327 446.079C591.327 446.079 580.728 453.63 573.646 453.208C573.646 453.208 568.993 461.138 567.962 463.753C567.962 463.753 580.014 469.779 586.282 468.672C586.282 468.672 594.447 460.742 593.974 455.188C593.498 449.638 591.327 446.079 591.327 446.079Z" fill="#35488B"/>
<path d="M562.253 431.877L564.796 435.494L564.998 435.952L570.277 448.004L572.964 454.146C574.767 454.579 578.117 454.272 579.614 453.738C587.786 450.947 591.338 446.075 591.338 446.075C586.592 433.669 580.018 425.195 578.676 423.694C576.34 421.159 570.223 419.078 570.223 419.078C568.55 420.802 562.56 423.824 562.56 423.824C561.244 424.863 562.253 431.877 562.253 431.877Z" fill="#739AF0"/>
<path d="M564.998 435.952L570.277 448.004C574.284 439.912 571.749 428.163 571.749 428.163C571.749 428.163 565.301 433.745 565.074 434.174C565.048 434.254 564.998 434.91 564.998 435.952Z" fill="#5885D6"/>
<path d="M540.764 450.565C540.764 450.565 541.099 452.465 543.407 453.1C545.715 453.709 559.999 447.701 563.4 446.024C565.225 445.112 567.865 440.038 569.895 435.599C570.378 434.506 570.833 433.464 571.24 432.526C572.254 430.168 572.914 428.465 572.914 428.465C572.914 426.132 567.407 422.959 565.074 424.026C564.363 424.354 563.425 425.8 562.434 427.705C561.979 428.592 561.521 429.558 561.063 430.546C559.264 434.531 557.612 439.021 557.259 440.088C556.624 441.993 540.764 450.565 540.764 450.565Z" fill="#FFB27D"/>
<path d="M561.063 430.546C563.195 431.513 567.028 433.388 569.895 435.599C570.378 434.506 570.833 433.464 571.24 432.526C572.254 430.168 572.914 428.465 572.914 428.465C572.914 426.132 567.407 422.959 565.074 424.026C564.363 424.354 563.425 425.8 562.434 427.705C561.979 428.592 561.521 429.558 561.063 430.546Z" fill="#739AF0"/>
<path d="M558.452 518.741H556.555C555.921 518.655 555.448 518.493 554.799 518.417C553.808 518.302 553.353 518.662 553.259 518.741L553.245 518.76H545.181C544.979 518.503 545.174 517.912 545.365 517.476C545.491 517.176 545.773 516.953 546.119 516.863C546.974 516.646 548.658 516.452 550.201 515.215C551.07 514.519 554.395 512.661 554.395 512.661L554.413 512.658C554.485 512.661 554.835 512.755 556.346 513.884C557.129 514.468 558.46 513.062 558.46 513.062C558.46 513.062 558.712 513.246 558.9 513.585C559.047 513.855 559.159 514.223 559.073 514.681C558.95 515.323 559.34 516.516 559.65 517.324C559.837 517.811 559.996 518.161 559.996 518.161C559.996 518.161 560.086 518.561 558.452 518.741Z" fill="#739CF3"/>
<path d="M558.9 513.584C558.445 513.866 557.489 514.425 556.855 514.497C555.996 514.594 554.395 512.661 554.395 512.661L554.413 512.658C554.485 512.661 554.835 512.755 556.346 513.884C557.129 514.468 558.46 513.062 558.46 513.062C558.46 513.062 558.712 513.245 558.9 513.584Z" fill="#415DA5"/>
<path d="M558.452 518.741H556.555C555.921 518.655 555.448 518.493 554.799 518.417C553.808 518.302 553.353 518.662 553.259 518.741L553.245 518.76H545.181C544.979 518.503 545.174 517.912 545.365 517.476C545.607 517.281 545.679 518.309 545.812 518.475C545.949 518.637 552.39 518.532 552.762 518.294C553.133 518.056 554.251 517.638 555.805 517.966C557.161 518.251 559.156 517.519 559.65 517.324C559.837 517.811 559.996 518.161 559.996 518.161C559.996 518.161 560.086 518.561 558.452 518.741Z" fill="#415DA5"/>
<path d="M842.014 513.339C842.706 513.339 843.273 512.777 843.273 512.081C843.273 496.469 830.568 483.764 814.956 483.764C811.35 483.764 807.841 484.435 804.523 485.751C803.878 486.007 803.564 486.739 803.816 487.385C804.076 488.027 804.804 488.348 805.454 488.092C808.472 486.891 811.671 486.281 814.956 486.281C829.183 486.281 840.755 497.854 840.755 512.081C840.755 512.777 841.318 513.339 842.014 513.339Z" fill="#2C3A64"/>
<path d="M864.708 452.289C864.708 452.289 862.79 456.281 860.366 461.813C857.647 468.012 854.29 476.151 852.292 482.769C851.235 486.271 850.557 489.343 850.557 491.482C850.554 492.214 853.385 495.192 854.2 496.328C859.353 503.501 866.392 513.08 866.392 513.08L868.311 512.596C868.311 512.596 865.621 500.62 861.701 494.637C860.929 493.461 858.758 492.03 858.863 491.9L858.866 491.896C859.202 491.474 860.049 490.411 861.199 488.892C864.376 484.713 869.894 477.089 873.591 469.999C873.821 469.559 874.045 469.119 874.258 468.679C876.209 464.723 877.493 461.016 877.366 458.268L864.708 452.289Z" fill="#E8945B"/>
<path d="M870.017 513.062L868.693 513.898C868.206 514.107 867.799 514.187 867.308 514.414C866.558 514.76 866.421 515.243 866.4 515.348L866.396 515.37L860.777 518.922C860.511 518.81 860.348 518.258 860.265 517.829C860.208 517.541 860.291 517.238 860.485 517.018C860.972 516.466 862.05 515.572 862.508 513.916C862.768 512.986 864.16 510.058 864.16 510.058L864.171 510.047C864.221 510.018 864.51 509.939 866.126 510.162C866.962 510.274 867.189 508.579 867.189 508.579C867.189 508.579 867.456 508.615 867.756 508.799C867.994 508.947 868.253 509.188 868.423 509.585C868.657 510.144 869.523 510.916 870.139 511.413C870.514 511.716 870.799 511.922 870.799 511.922C870.799 511.922 871.063 512.2 870.017 513.062Z" fill="#B84C42"/>
<path d="M867.756 508.799C867.579 509.224 867.189 510.083 866.786 510.418C866.237 510.876 864.16 510.058 864.16 510.058L864.171 510.047C864.221 510.018 864.51 509.939 866.126 510.162C866.962 510.274 867.189 508.579 867.189 508.579C867.189 508.579 867.456 508.615 867.756 508.799Z" fill="#AA3E39"/>
<path d="M870.017 513.062L868.693 513.898C868.206 514.107 867.799 514.187 867.308 514.414C866.558 514.76 866.421 515.243 866.4 515.348L866.396 515.37L860.778 518.922C860.511 518.81 860.348 518.258 860.265 517.829C860.341 517.569 860.9 518.352 861.077 518.42C861.254 518.489 865.689 515.568 865.826 515.214C865.967 514.865 866.537 514.042 867.785 513.613C868.87 513.242 869.894 511.785 870.139 511.413C870.514 511.716 870.799 511.922 870.799 511.922C870.799 511.922 871.063 512.2 870.017 513.062Z" fill="#AA3E39"/>
<path d="M863.093 516.596L878.178 469.411L875.632 468.596L860.547 515.784L863.093 516.596Z" fill="#F99746"/>
<path d="M864.359 516.729L899.967 513.631L833.929 468.986L837.708 476.721L892.228 511.623L864.128 514.068L864.359 516.729Z" fill="#F99746"/>
<path d="M859.559 514.638L861.805 513.191L834.405 469.299L831.217 472.603L859.559 514.638Z" fill="#F99746"/>
<path d="M855.819 508.381L850.806 511.273C850.218 511.612 850.016 512.373 850.355 512.961C850.694 513.552 851.455 513.754 852.043 513.415L857.056 510.519C857.644 510.18 857.849 509.419 857.507 508.831C857.168 508.244 856.407 508.038 855.819 508.381Z" fill="#415DA5"/>
<path d="M854.827 510.245L861.145 517.238L861.73 516.733L855.408 509.74L854.827 510.245Z" fill="#415DA5"/>
<path d="M875.178 486.289C875.553 486.422 875.967 486.379 876.31 486.173C888.322 478.917 904.937 481.644 909.744 482.65L909.754 482.653C910.018 482.708 910.267 482.506 910.267 482.235V481.297C910.267 480.58 909.74 479.97 909.03 479.862C906.43 479.476 900.357 478.647 896.963 478.632C896.869 478.629 896.779 478.629 896.689 478.629C889.083 478.629 882.52 479.992 877.125 482.679C876.021 483.23 874.745 483.306 873.584 482.899L872.105 482.379C871.257 482.08 870.331 482.527 870.035 483.371C869.844 483.916 870.129 484.514 870.677 484.709L875.178 486.289Z" fill="#35488B"/>
<path d="M886.339 468.001C886.339 468.001 886.822 465.812 885.448 465.664C884.078 465.516 879.069 466.591 877.734 466.443C876.4 466.295 869.425 465.145 868.199 466.331C866.977 467.521 867.496 468.56 869.945 468.78C872.393 469.004 875.657 469.411 876.584 470.19C877.511 470.969 884.226 473.27 886.339 468.001Z" fill="#415DA5"/>
<path d="M868.499 516.188C868.499 512.503 865.509 509.513 861.82 509.513C858.131 509.513 855.145 512.503 855.145 516.188C855.145 519.877 858.131 522.867 861.82 522.867C865.509 522.867 868.499 519.877 868.499 516.188Z" fill="#415DA5"/>
<path d="M898.157 512.481L905.575 491.806L905.019 491.604L897.598 512.279L898.157 512.481Z" fill="#415DA5"/>
<path d="M918.633 522.002L918.867 521.457L897.875 512.438L884.074 492.722L883.587 493.065L897.486 512.917L897.562 512.95L918.633 522.002Z" fill="#415DA5"/>
<path d="M906.004 535.475L906.566 535.287C906.419 534.84 898.304 513.48 897.958 512.571L897.745 512.016L884.669 532.698L885.17 533.015L897.612 513.339C900.587 521.161 905.892 535.136 906.004 535.475Z" fill="#415DA5"/>
<path d="M897.731 511.486L921.028 507.479L920.927 506.895L897.63 510.901L897.731 511.486Z" fill="#415DA5"/>
<path d="M895.914 511.139L896.48 510.952L889.653 490.475L889.09 490.663L895.914 511.139Z" fill="#415DA5"/>
<path d="M897.727 512.986L897.814 512.943L919.181 502.109L918.914 501.579L897.634 512.369L874.73 508.528L874.633 509.113L897.727 512.986Z" fill="#415DA5"/>
<path d="M889.058 534.732C889.184 534.36 894.669 520.869 897.738 513.321L909.596 531.976L910.097 531.659L897.623 512.034L897.406 512.564C897.049 513.444 888.647 534.097 888.495 534.544L889.058 534.732Z" fill="#415DA5"/>
<path d="M920.635 516.383L920.725 515.795L897.724 512.384L897.637 512.971L920.635 516.383Z" fill="#415DA5"/>
<path d="M899.091 509.607L911.853 494.918L911.402 494.529L898.643 509.217L899.091 509.607Z" fill="#415DA5"/>
<path d="M898.423 535.85L899.015 535.799L897.233 514.284L896.642 514.335L898.423 535.85Z" fill="#415DA5"/>
<path d="M878.56 525.831L898.889 511.734L898.55 511.248L878.221 525.345L878.56 525.831Z" fill="#415DA5"/>
<path d="M914.533 528.615L914.955 528.197L897.976 511.071V488.788H897.385V511.316L914.533 528.615Z" fill="#415DA5"/>
<path d="M902.058 512.679C902.058 510.259 900.097 508.301 897.681 508.301C895.264 508.301 893.302 510.259 893.302 512.679C893.302 515.095 895.264 517.054 897.681 517.054C900.097 517.054 902.058 515.095 902.058 512.679Z" fill="#2C3A64"/>
<path d="M919.502 516.213C919.307 517.429 919.012 518.608 918.626 519.751C918.471 520.216 918.298 520.678 918.106 521.129C918.031 521.313 917.955 521.493 917.872 521.673C916.934 523.772 915.676 525.702 914.158 527.393C914.028 527.541 913.894 527.689 913.757 527.833C912.571 529.095 911.237 530.213 909.783 531.165C909.621 531.277 909.455 531.381 909.286 531.486C908.182 532.168 907.017 532.755 905.798 533.242C905.614 533.314 905.427 533.383 905.243 533.451C903.252 534.18 901.132 534.627 898.925 534.75C898.726 534.761 898.528 534.771 898.33 534.775C898.113 534.782 897.897 534.786 897.677 534.786C894.914 534.786 892.188 534.27 889.639 533.275C889.455 533.203 889.271 533.131 889.087 533.051C888.196 532.676 887.33 532.243 886.494 531.753C886.364 531.677 886.238 531.601 886.112 531.519C885.942 531.418 885.776 531.313 885.61 531.201C883.19 529.625 881.099 527.58 879.465 525.204V525.2C879.346 525.038 879.238 524.876 879.133 524.71C878.931 524.407 878.74 524.097 878.556 523.783C877.114 521.309 876.176 518.572 875.783 515.734C875.661 514.854 875.588 513.967 875.578 513.072C875.57 512.939 875.57 512.809 875.57 512.676C875.57 511.533 875.657 510.411 875.827 509.315C875.855 509.116 875.888 508.922 875.924 508.727C876.321 506.538 877.042 504.457 878.037 502.538C878.513 501.619 879.051 500.735 879.649 499.895C881.059 497.912 882.787 496.17 884.763 494.742C884.925 494.626 885.087 494.515 885.25 494.403C886.591 493.487 888.037 492.715 889.57 492.109C889.75 492.037 889.934 491.965 890.122 491.896C892.39 491.071 894.835 490.605 897.381 490.573C897.479 490.569 897.58 490.569 897.677 490.569C897.778 490.569 897.875 490.569 897.976 490.573C900.414 490.605 902.758 491.034 904.947 491.795C905.135 491.86 905.322 491.929 905.506 492.001C907.479 492.747 909.314 493.772 910.973 495.023C911.132 495.142 911.287 495.265 911.442 495.387C913.837 497.299 915.824 499.69 917.259 502.416C917.353 502.593 917.443 502.769 917.529 502.946C917.951 503.804 918.319 504.691 918.626 505.604C918.806 506.13 918.965 506.664 919.102 507.209C919.152 507.4 919.199 507.591 919.242 507.786C919.599 509.358 919.787 510.995 919.787 512.676C919.787 513.675 919.722 514.659 919.589 515.626C919.563 515.824 919.535 516.019 919.502 516.213ZM918.626 497.858C913.974 491.298 906.318 487.006 897.677 487.006C889.018 487.006 881.348 491.316 876.696 497.901C876.086 498.766 875.527 499.668 875.026 500.609V500.613C873.1 504.212 872.007 508.316 872.007 512.676C872.007 512.91 872.011 513.148 872.018 513.383C872.04 514.273 872.112 515.16 872.231 516.044C872.671 519.401 873.774 522.643 875.48 525.575C877.702 529.391 880.886 532.586 884.691 534.822C887.713 536.6 891.07 537.729 894.543 538.15L894.633 538.161C895.639 538.284 896.656 538.345 897.677 538.345C898.716 538.345 899.743 538.284 900.749 538.161C900.782 538.158 900.814 538.154 900.843 538.15C908.171 537.245 914.551 533.242 918.626 527.494C921.601 523.307 923.35 518.193 923.35 512.676C923.35 507.158 921.601 502.044 918.626 497.858Z" fill="#202E51"/>
<path d="M918.932 516.131C918.849 516.668 918.745 517.198 918.626 517.721C918.37 518.821 918.031 519.892 917.616 520.92C917.54 521.104 917.465 521.284 917.385 521.464C916.495 523.516 915.29 525.406 913.84 527.072C913.711 527.22 913.577 527.368 913.44 527.516C912.29 528.767 910.991 529.885 909.574 530.837C909.408 530.949 909.242 531.057 909.076 531.161C908.005 531.843 906.869 532.431 905.679 532.918C905.495 532.993 905.311 533.066 905.124 533.134C903.169 533.873 901.081 534.339 898.903 534.476C898.708 534.494 898.506 534.505 898.308 534.508C898.034 534.523 897.76 534.526 897.482 534.526C894.745 534.526 892.127 534.018 889.714 533.087C889.53 533.019 889.346 532.943 889.163 532.867C888.135 532.442 887.15 531.937 886.209 531.363C886.039 531.259 885.874 531.154 885.708 531.046C883.302 529.488 881.225 527.465 879.602 525.107C879.487 524.944 879.379 524.778 879.271 524.612C877.565 521.984 876.411 518.965 875.974 515.719C875.859 514.847 875.794 513.956 875.787 513.054C875.783 512.979 875.783 512.903 875.783 512.827C875.783 511.644 875.877 510.487 876.061 509.354C876.093 509.156 876.126 508.961 876.166 508.767C876.573 506.617 877.298 504.58 878.293 502.704C878.776 501.792 879.325 500.916 879.93 500.086C881.333 498.157 883.05 496.465 885.005 495.088C885.167 494.972 885.329 494.861 885.495 494.753C886.811 493.876 888.225 493.141 889.722 492.567C889.905 492.495 890.089 492.426 890.277 492.362H890.28C892.506 491.575 894.893 491.143 897.381 491.132H897.482C897.648 491.132 897.814 491.135 897.976 491.139C900.342 491.19 902.614 491.626 904.738 492.38C904.926 492.444 905.11 492.513 905.293 492.589C907.187 493.317 908.95 494.309 910.544 495.517C910.703 495.632 910.858 495.755 911.013 495.881C913.339 497.739 915.272 500.065 916.675 502.712C916.769 502.888 916.859 503.065 916.945 503.242C917.584 504.533 918.099 505.896 918.471 507.317C918.521 507.508 918.572 507.699 918.615 507.894L918.626 507.933C918.99 509.506 919.181 511.143 919.181 512.827C919.181 513.747 919.124 514.656 919.012 515.543C918.987 515.741 918.961 515.936 918.932 516.131ZM919.517 507.739C919.473 507.544 919.423 507.353 919.372 507.162C919.167 506.361 918.918 505.579 918.626 504.814C918.37 504.136 918.081 503.476 917.76 502.831C917.674 502.65 917.584 502.474 917.49 502.3C916.033 499.545 914.024 497.125 911.612 495.192C911.457 495.066 911.301 494.944 911.143 494.825C907.468 492.03 902.913 490.331 897.976 490.227C897.81 490.219 897.648 490.219 897.482 490.219H897.381C894.792 490.23 892.304 490.681 889.988 491.496C889.801 491.561 889.617 491.629 889.433 491.702C887.853 492.304 886.36 493.079 884.972 494.006C884.806 494.114 884.644 494.226 884.482 494.341C882.437 495.78 880.641 497.551 879.173 499.574C878.564 500.411 878.012 501.291 877.525 502.21C876.465 504.187 875.693 506.343 875.268 508.615C875.228 508.81 875.192 509.008 875.163 509.203C874.968 510.382 874.871 511.594 874.871 512.827C874.871 512.928 874.871 513.033 874.875 513.134C874.885 514.035 874.95 514.926 875.066 515.799C875.513 519.207 876.725 522.377 878.52 525.135C878.629 525.301 878.737 525.464 878.852 525.626C880.544 528.085 882.711 530.191 885.221 531.818C885.387 531.926 885.556 532.031 885.726 532.132C886.71 532.737 887.742 533.264 888.82 533.715C889.004 533.79 889.188 533.863 889.375 533.935C891.893 534.905 894.626 535.439 897.482 535.439C897.785 535.439 898.085 535.431 898.384 535.421C898.582 535.413 898.781 535.402 898.979 535.388C901.24 535.24 903.411 534.757 905.445 533.989C905.632 533.92 905.816 533.848 906 533.772C907.248 533.264 908.442 532.647 909.567 531.93C909.733 531.825 909.899 531.717 910.065 531.605C911.536 530.617 912.888 529.459 914.082 528.161C914.219 528.017 914.352 527.869 914.482 527.721C916.018 525.972 917.284 523.985 918.222 521.825C918.305 521.645 918.381 521.464 918.453 521.28C918.514 521.136 918.572 520.988 918.626 520.84C919.181 519.38 919.589 517.851 919.834 516.264C919.863 516.069 919.892 515.871 919.917 515.676C920.032 514.742 920.094 513.79 920.094 512.827C920.094 511.078 919.895 509.372 919.517 507.739Z" fill="#B84C42"/>
<path d="M814.444 512.481L821.866 491.806L821.307 491.604L813.885 512.279L814.444 512.481Z" fill="#415DA5"/>
<path d="M834.921 522.002L835.155 521.457L814.163 512.438L800.362 492.722L799.878 493.065L813.773 512.917L813.853 512.95L834.921 522.002Z" fill="#415DA5"/>
<path d="M822.295 535.475L822.858 535.287C822.706 534.84 814.592 513.48 814.246 512.571L814.037 512.016L800.957 532.698L801.458 533.015L813.903 513.339C816.875 521.161 822.18 535.136 822.295 535.475Z" fill="#415DA5"/>
<path d="M814.018 511.486L837.315 507.479L837.214 506.895L813.917 510.901L814.018 511.486Z" fill="#415DA5"/>
<path d="M812.205 511.139L812.767 510.952L805.94 490.475L805.378 490.663L812.205 511.139Z" fill="#415DA5"/>
<path d="M814.015 512.986L814.101 512.943L835.469 502.109L835.202 501.579L813.921 512.369L791.018 508.528L790.92 509.113L814.015 512.986Z" fill="#415DA5"/>
<path d="M805.345 534.732C805.475 534.36 810.957 520.869 814.026 513.321L825.887 531.976L826.384 531.659L813.91 512.034L813.694 512.564C813.337 513.444 804.934 534.097 804.783 534.544L805.345 534.732Z" fill="#415DA5"/>
<path d="M836.926 516.383L837.012 515.795L814.011 512.384L813.925 512.971L836.926 516.383Z" fill="#415DA5"/>
<path d="M815.378 509.607L828.141 494.918L827.693 494.529L814.931 509.217L815.378 509.607Z" fill="#415DA5"/>
<path d="M814.711 535.85L815.302 535.799L813.521 514.284L812.929 514.335L814.711 535.85Z" fill="#415DA5"/>
<path d="M794.848 525.831L815.176 511.734L814.837 511.248L794.509 525.345L794.848 525.831Z" fill="#415DA5"/>
<path d="M830.82 528.615L831.242 528.197L814.264 511.071V488.788H813.672V511.316L830.82 528.615Z" fill="#415DA5"/>
<path d="M818.346 512.679C818.346 510.259 816.384 508.301 813.968 508.301C811.552 508.301 809.59 510.259 809.59 512.679C809.59 515.095 811.552 517.054 813.968 517.054C816.384 517.054 818.346 515.095 818.346 512.679Z" fill="#2C3A64"/>
<path d="M835.79 516.213C835.516 517.926 835.04 519.575 834.39 521.129C834.318 521.313 834.239 521.493 834.156 521.673C833.218 523.772 831.963 525.702 830.445 527.393C830.315 527.541 830.182 527.689 830.045 527.833C828.858 529.095 827.524 530.217 826.071 531.165C825.905 531.277 825.743 531.381 825.573 531.486C824.473 532.168 823.305 532.755 822.086 533.242C821.906 533.314 821.722 533.383 821.534 533.451C819.547 534.18 817.423 534.627 815.216 534.75C815.018 534.761 814.819 534.771 814.621 534.775C814.404 534.782 814.188 534.786 813.968 534.786C811.202 534.786 808.472 534.27 805.926 533.275C805.742 533.203 805.558 533.131 805.378 533.051C804.487 532.676 803.622 532.243 802.785 531.753C802.655 531.677 802.529 531.601 802.403 531.519C802.233 531.418 802.067 531.313 801.902 531.201L801.858 531.172C799.453 529.6 797.376 527.566 795.753 525.204C795.634 525.042 795.522 524.876 795.421 524.71C795.215 524.407 795.028 524.097 794.844 523.783C792.889 520.426 791.858 516.585 791.858 512.676C791.858 511.533 791.945 510.411 792.114 509.315C792.143 509.116 792.175 508.922 792.211 508.727C793.25 502.996 796.503 498.027 801.05 494.742C801.213 494.626 801.371 494.515 801.537 494.403C801.642 494.331 801.75 494.258 801.858 494.19C803.11 493.364 804.448 492.668 805.858 492.109C806.041 492.037 806.229 491.965 806.413 491.896C808.681 491.071 811.126 490.605 813.669 490.573C813.77 490.569 813.867 490.569 813.968 490.569C814.065 490.569 814.166 490.569 814.264 490.573C816.482 490.602 818.62 490.959 820.636 491.597C820.838 491.658 821.036 491.727 821.235 491.795C821.422 491.86 821.61 491.929 821.794 492.001C822.504 492.268 823.197 492.574 823.867 492.91C825.065 493.516 826.201 494.222 827.261 495.023C827.42 495.142 827.575 495.265 827.73 495.387C830.124 497.299 832.111 499.69 833.547 502.416C833.64 502.593 833.731 502.769 833.813 502.95C834.481 504.298 835.011 505.723 835.389 507.209C835.44 507.4 835.487 507.591 835.53 507.786C835.887 509.358 836.075 510.995 836.075 512.676C836.075 513.675 836.006 514.659 835.876 515.626C835.851 515.824 835.822 516.019 835.79 516.213ZM827.383 490.8C826.716 490.385 826.024 490.003 825.317 489.657C824.239 489.12 823.114 488.658 821.952 488.279C819.439 487.453 816.756 487.006 813.968 487.006C810.138 487.006 806.503 487.85 803.236 489.361C802.771 489.574 802.309 489.805 801.858 490.046C793.795 494.381 788.299 502.899 788.299 512.676C788.299 517.216 789.496 521.673 791.768 525.575C793.989 529.391 797.174 532.586 800.978 534.822C801.267 534.991 801.562 535.157 801.858 535.312C804.646 536.809 807.693 537.768 810.834 538.15C810.863 538.158 810.892 538.161 810.924 538.161C811.931 538.284 812.948 538.345 813.968 538.345C815.007 538.345 816.034 538.284 817.041 538.161L817.134 538.15C829.8 536.585 839.638 525.759 839.638 512.676C839.638 503.436 834.729 495.319 827.383 490.8Z" fill="#1D2A4C"/>
<path d="M835.22 516.131C834.96 517.797 834.517 519.401 833.904 520.92C833.828 521.104 833.752 521.284 833.673 521.464C832.782 523.516 831.577 525.406 830.128 527.072C829.998 527.22 829.865 527.368 829.727 527.516C828.577 528.767 827.279 529.885 825.862 530.837C825.696 530.949 825.53 531.057 825.364 531.161C824.293 531.843 823.157 532.431 821.967 532.918C821.783 532.993 821.599 533.066 821.411 533.134C819.457 533.873 817.369 534.339 815.194 534.476C814.999 534.494 814.797 534.505 814.599 534.508C814.325 534.523 814.047 534.526 813.77 534.526C811.033 534.526 808.414 534.018 806.002 533.087C805.818 533.019 805.634 532.943 805.45 532.867C804.426 532.442 803.438 531.937 802.5 531.363C802.331 531.259 802.165 531.154 801.999 531.046C801.952 531.017 801.905 530.988 801.858 530.952C799.51 529.409 797.484 527.418 795.89 525.107C795.778 524.944 795.666 524.778 795.562 524.612C793.355 521.215 792.071 517.169 792.071 512.827C792.071 511.644 792.164 510.487 792.348 509.354C792.381 509.156 792.413 508.961 792.453 508.767C793.524 503.137 796.777 498.272 801.296 495.091C801.458 494.972 801.62 494.861 801.782 494.753L801.858 494.706C803.153 493.847 804.541 493.13 806.009 492.567C806.193 492.495 806.38 492.426 806.568 492.362C808.793 491.575 811.18 491.143 813.669 491.132H813.77C813.936 491.132 814.101 491.135 814.264 491.139C816.402 491.186 818.465 491.543 820.409 492.174C820.618 492.239 820.82 492.307 821.025 492.38C821.213 492.444 821.397 492.513 821.581 492.589C822.273 492.856 822.951 493.159 823.608 493.494C824.744 494.075 825.822 494.749 826.832 495.517C826.99 495.632 827.145 495.755 827.3 495.881C829.626 497.739 831.559 500.065 832.962 502.712C833.056 502.888 833.146 503.065 833.233 503.242C833.871 504.533 834.387 505.896 834.758 507.317C834.809 507.508 834.859 507.699 834.902 507.894C835.274 509.477 835.469 511.129 835.469 512.827C835.469 513.747 835.411 514.656 835.299 515.543C835.274 515.741 835.249 515.936 835.22 516.131ZM835.804 507.739C835.761 507.544 835.71 507.353 835.66 507.162C835.27 505.651 834.729 504.201 834.048 502.831C833.961 502.65 833.871 502.474 833.777 502.3C832.32 499.545 830.312 497.125 827.899 495.192C827.744 495.066 827.589 494.944 827.43 494.825C826.352 494.002 825.198 493.278 823.979 492.657C822.944 492.131 821.866 491.684 820.748 491.319H820.744C819.904 491.045 819.046 490.822 818.166 490.652C816.9 490.396 815.594 490.252 814.264 490.227C814.098 490.219 813.936 490.219 813.77 490.219H813.669C813.063 490.223 812.461 490.248 811.866 490.299C809.925 490.461 808.05 490.869 806.279 491.496C806.092 491.561 805.904 491.629 805.721 491.702C804.365 492.217 803.073 492.859 801.858 493.62C801.656 493.743 801.458 493.873 801.259 494.006C801.094 494.114 800.931 494.226 800.769 494.341C796.056 497.663 792.662 502.74 791.555 508.615C791.515 508.81 791.479 509.008 791.45 509.203C791.256 510.382 791.158 511.594 791.158 512.827C791.158 517.364 792.5 521.59 794.808 525.135C794.916 525.301 795.028 525.467 795.14 525.629C796.835 528.089 799.002 530.195 801.512 531.818C801.627 531.894 801.743 531.969 801.858 532.038C801.909 532.074 801.963 532.106 802.013 532.135C802.998 532.737 804.033 533.268 805.111 533.715C805.291 533.79 805.475 533.863 805.659 533.935C808.176 534.905 810.914 535.439 813.77 535.439C814.073 535.439 814.376 535.431 814.675 535.421C814.873 535.413 815.072 535.402 815.27 535.388C817.531 535.24 819.702 534.757 821.732 533.989C821.92 533.92 822.104 533.848 822.288 533.772C823.535 533.264 824.729 532.647 825.854 531.93C826.02 531.825 826.186 531.717 826.352 531.605C827.823 530.617 829.176 529.459 830.369 528.161C830.506 528.017 830.64 527.869 830.77 527.721C832.306 525.972 833.572 523.985 834.513 521.825C834.592 521.645 834.668 521.464 834.74 521.28C835.386 519.69 835.855 518.009 836.121 516.264C836.15 516.069 836.179 515.871 836.204 515.676C836.32 514.742 836.381 513.79 836.381 512.827C836.381 511.078 836.183 509.372 835.804 507.739Z" fill="#B84C42"/>
<path d="M880.421 452.368C880.421 452.368 885.848 460.976 879.141 465.708C872.433 470.443 849.843 472.707 850.95 473.623C854.337 476.433 857.416 480.753 857.254 506.617L855.581 507.479C855.581 507.479 839.472 472.437 840.55 468.261C841.267 465.498 864.762 450.536 880.421 452.368Z" fill="#FFB27D"/>
<path d="M867.395 470.277C867.395 470.277 881.084 468.012 882.494 463.18C883.551 459.57 883.861 458.098 877.658 446.436C877.658 446.436 875.069 451.358 861.538 450.219C861.538 450.219 861.607 450.857 861.607 451.722C861.589 453.154 861.365 455.195 860.244 455.783L860.175 455.815C858.394 456.627 855.639 458.268 855.224 458.423C855.206 458.423 863.525 460.017 867.395 470.277Z" fill="#35488B"/>
<path d="M860.244 455.783C866.273 454.002 872.163 454.189 875.635 450.947C870.522 449.634 864.373 451.722 861.607 451.722C861.589 453.154 861.365 455.195 860.244 455.783Z" fill="#2C3A64"/>
<path d="M859.522 507.872L858.112 508.55C857.604 508.702 857.189 508.734 856.674 508.904C855.891 509.16 855.7 509.625 855.664 509.726L855.657 509.744L849.667 512.622C849.414 512.481 849.317 511.911 849.284 511.478C849.259 511.183 849.374 510.894 849.598 510.696C850.146 510.205 851.318 509.441 851.967 507.85C852.332 506.96 854.052 504.212 854.052 504.212L854.063 504.201C854.12 504.176 854.416 504.132 855.996 504.54C856.811 504.749 857.232 503.094 857.232 503.094C857.232 503.094 857.496 503.159 857.77 503.379C857.99 503.552 858.221 503.822 858.34 504.237C858.509 504.818 859.281 505.683 859.836 506.253C860.175 506.595 860.431 506.83 860.431 506.83C860.431 506.83 860.662 507.136 859.522 507.872Z" fill="#B84C42"/>
<path d="M857.77 503.379C857.546 503.775 857.063 504.587 856.62 504.875C856.024 505.261 854.052 504.212 854.052 504.212L854.063 504.201C854.12 504.176 854.416 504.132 855.996 504.54C856.811 504.749 857.233 503.094 857.233 503.094C857.233 503.094 857.496 503.159 857.77 503.379Z" fill="#AA3E39"/>
<path d="M859.522 507.872L858.112 508.55C857.604 508.702 857.189 508.734 856.674 508.904C855.891 509.16 855.7 509.625 855.664 509.726L855.657 509.744L849.667 512.622C849.414 512.481 849.317 511.911 849.284 511.478C849.389 511.23 849.854 512.07 850.02 512.156C850.186 512.247 854.932 509.859 855.112 509.527C855.292 509.192 855.952 508.442 857.24 508.164C858.361 507.919 859.548 506.592 859.836 506.253C860.175 506.595 860.431 506.83 860.431 506.83C860.431 506.83 860.662 507.136 859.522 507.872Z" fill="#AA3E39"/>
<path d="M825.472 479.426C825.854 478.467 826.749 477.868 827.715 477.807C838.797 452.35 838.916 452.148 839.082 451.874L840.687 455.051C840.77 454.91 815.623 511.45 815.623 511.45L813.149 510.443L825.472 479.426Z" fill="#35488B"/>
<path d="M851.899 455.668C852.425 453.897 851.416 452.036 849.645 451.51C847.874 450.983 846.013 451.993 845.487 453.764C844.96 455.531 845.97 457.395 847.741 457.922C849.511 458.444 851.372 457.438 851.899 455.668Z" fill="#415DA5"/>
<path d="M831.195 449.815C831.722 448.044 830.712 446.183 828.941 445.657C827.171 445.13 825.31 446.14 824.783 447.907C824.257 449.678 825.266 451.542 827.037 452.069C828.808 452.591 830.669 451.585 831.195 449.815Z" fill="#415DA5"/>
<path d="M828.693 452.061L848.163 456.948L848.502 453.017L829.028 448.131L828.693 452.061Z" fill="#415DA5"/>
<path d="M847.723 448.181C847.723 448.181 845.887 449.382 844.593 449.328C843.298 449.274 841.65 449.815 841.65 449.815C841.65 449.815 839.922 450.327 839.76 452.379C839.76 452.379 839.767 452.974 842.487 452.137C843.082 451.953 844.51 452.299 844.996 452.137C845.483 451.975 846.958 450.377 848.246 450.42L847.723 448.181Z" fill="#FFB27D"/>
<path d="M837.914 445.859C837.914 445.859 836.082 447.059 834.784 447.005C833.489 446.951 831.841 447.492 831.841 447.492C831.841 447.492 830.113 448.004 829.951 450.056C829.951 450.056 829.991 450.9 832.678 449.815C833.417 449.515 834.704 449.977 835.191 449.815C835.674 449.652 837.456 448.286 838.689 447.947L837.914 445.859Z" fill="#E8945B"/>
<path d="M861.012 396.633C863.688 397.116 864.928 398.562 866.627 402.684C868.398 406.987 866.252 410.946 864.546 410.431C863.453 410.099 863.067 411.974 863.067 411.974L852.653 402.875C852.653 402.875 854.171 396.193 861.012 396.633Z" fill="#2C3A64"/>
<path d="M854.914 421.444C854.914 421.444 858.542 423.485 858.116 428.657C857.687 433.828 852.941 441.978 849.335 444.001C846.479 445.603 838.213 448.105 838.213 448.105L837.914 445.859C837.914 445.859 844.639 441.47 846.096 439.97C849.216 436.753 852.187 420.193 854.914 421.444Z" fill="#E8945B"/>
<path d="M855.274 433.071C855.44 434.236 855.747 435.238 856.125 436.194C856.443 436.994 856.807 437.755 857.182 438.549C858.286 440.878 860.882 442.029 860.969 446.511C861.001 448.055 874.045 441.531 874.121 436.132L874.124 436.089C874.15 435.83 874.182 435.13 874.225 434.203C874.323 431.935 874.449 428.321 874.496 426.489C874.496 426.446 874.496 426.406 874.499 426.367C874.517 425.58 874.543 425.014 874.571 424.866C872.826 417.434 868.809 417.405 867.438 417.427C867.254 417.43 867.07 417.434 866.89 417.445C866.133 417.477 865.422 417.12 864.986 416.503C864.218 415.411 863.356 413.535 862.829 410.971L862.519 411.105L857.25 413.344C857.25 413.344 857.737 415.047 858.084 416.673C858.231 417.369 858.35 418.051 858.397 418.581C858.441 419.093 858.145 419.569 857.669 419.753V419.756C857.575 419.965 854.434 427.16 855.274 433.071Z" fill="#FFB27D"/>
<path d="M856.125 436.194C856.443 436.994 856.807 437.755 857.182 438.549C858.286 440.878 860.882 442.029 860.969 446.511C861.048 446.518 861.131 446.526 861.21 446.533C870.843 447.287 874.124 436.089 874.124 436.089C874.15 435.829 874.182 435.13 874.225 434.203L856.843 434.228C856.843 434.228 856.486 435.018 856.125 436.194Z" fill="#E8945B"/>
<path d="M853.68 430.889C853.731 431.033 853.785 431.177 853.843 431.322C855.512 435.299 859.202 455.783 859.202 455.783C859.249 455.754 874.276 456.768 880.233 448.549C880.522 449.418 879.112 444.409 876.919 437.68C875.271 432.631 874.431 429.068 874.496 426.489C874.496 426.446 874.496 426.406 874.499 426.367C874.114 426.06 873.742 425.775 873.396 425.501C872.292 424.632 871.467 423.893 871.449 422.98C871.441 422.623 871.467 422.255 871.517 421.891C871.542 421.718 871.568 421.545 871.604 421.372C871.95 419.562 872.772 417.942 872.772 417.942C870.879 417.091 867.438 417.427 867.438 417.427C867.438 417.427 866.147 420.312 863.399 422.032C862.631 422.515 859.883 423.72 858.531 422.465C857.636 421.635 857.611 419.937 857.669 419.756V419.753C854.553 420.842 853.417 421.812 853.417 421.812C855.224 423.081 852.393 427.041 853.68 430.889Z" fill="#739AF0"/>
<path d="M857.251 413.344C857.251 413.344 857.737 415.047 858.084 416.673C861.138 415.945 862.177 412.8 862.516 411.105L857.251 413.344Z" fill="#E8945B"/>
<path d="M856.547 415.101C856.547 415.101 863.846 413.698 862.902 409.165C861.957 404.632 862.263 401.4 857.564 402.104C852.865 402.807 852.321 404.725 852.27 406.316C852.216 407.906 854.625 415.349 856.547 415.101Z" fill="#FFB27D"/>
<path d="M851.957 403.752C852.797 402.15 853.709 402.273 854.272 402.583C857.788 399.565 861.026 402.259 861.026 402.259C862.195 405.411 864.928 406.781 864.928 406.781C864.928 406.781 863.774 407.877 860.554 407.729C859.569 407.686 858.599 407.199 857.719 406.539C859.393 408.357 861.387 409.496 861.387 409.496C857.384 408.573 854.856 403.802 854.596 403.297C854.236 403.788 853.543 404.837 853.453 405.742C853.331 406.972 853.666 409.381 852.956 409.446C852.956 409.446 850.698 406.146 851.957 403.752Z" fill="#2C3A64"/>
<path d="M847.723 448.181L848.246 450.421C848.246 450.421 860.493 448.747 864.496 446.418C868.499 444.088 874.561 430.391 875.04 424.6C875.066 424.293 875.08 424.001 875.087 423.72C875.235 418.721 872.772 417.942 872.772 417.942C871.784 417.492 870.561 419.179 869.263 421.823C866.54 427.358 863.5 437.081 861.694 439.959C860.305 442.169 847.723 448.181 847.723 448.181Z" fill="#FFB27D"/>
<path d="M869.263 421.823C872.621 421.029 875.087 423.72 875.087 423.72C875.235 418.721 872.772 417.942 872.772 417.942C871.784 417.492 870.561 419.179 869.263 421.823Z" fill="#739AF0"/>
<path d="M853.417 421.812C853.417 421.812 852.191 422.952 851.719 425.544C851.719 425.544 853.536 425.555 854.384 427.33C854.384 427.33 855.051 422.093 853.417 421.812Z" fill="#739AF0"/>
<path d="M860.507 398.256C860.507 398.256 864.542 393.257 869.631 394.66C874.719 396.063 877.619 401.941 879.981 400.975C883.951 399.352 885.051 404.678 883.468 408.555C882.083 411.942 876.101 413.233 872.476 409.525C869.836 406.821 866.209 395.273 861.737 399.132C857.265 402.994 860.507 398.256 860.507 398.256Z" fill="#2C3A64"/>
<path d="M981 539.272V539.654C981 540.264 980.502 540.765 979.889 540.765H1.1147C0.501274 540.765 0 540.264 0 539.654V539.272C0 538.663 0.501274 538.161 1.1147 538.161H979.889C980.502 538.161 981 538.663 981 539.272Z" fill="#233862"/>
<path d="M301.32 475.138L304.728 472.498L298.576 472.495L301.32 475.138Z" fill="#1D3F77"/>
<path d="M469.5 495.311L471.84 493.501H464.08L469.5 495.311Z" fill="#1D3F77"/>
</svg>
